<?xml version="1.0" standalone="no"?>
<!DOCTYPE svg PUBLIC "-//W3C//DTD SVG 1.1//EN" "http://www.w3.org/Graphics/SVG/1.1/DTD/svg11.dtd" >
<svg xmlns="http://www.w3.org/2000/svg">
<metadata></metadata>
<defs>
<font id="aranearegular" horiz-adv-x="1271" >
<font-face units-per-em="2048" ascent="1638" descent="-410" />
<missing-glyph horiz-adv-x="650" />
<glyph horiz-adv-x="2048" />
<glyph horiz-adv-x="2048" />
<glyph unicode="&#xd;" horiz-adv-x="650" />
<glyph horiz-adv-x="1009" d="M16 910l4 27h267l-1 -27q-14 -17 -14 -52q0 -54 31 -144l118 -252h60v-358q30 -104 74 -104h-300v21q71 31 83 140v234l-244 463q-31 34 -78 52zM610 699q38 93 38 149q0 53 -34 78v15h187v-21q-87 -11 -191 -221z" />
<glyph unicode=" "  horiz-adv-x="650" />
<glyph unicode="&#x09;" horiz-adv-x="650" />
<glyph unicode="&#xa0;" horiz-adv-x="650" />
<glyph unicode="A" horiz-adv-x="1460" d="M4 0v23q131 56 442 903l-101 -364h426l-170 462q-24 25 -52 25q-27 0 -59 -25l51 149l129 105l378 -1014q92 -223 175 -241v-23h-373l-1 23q52 0 52 106q0 49 -12 123l-96 250l-472 1l-108 -290q-9 -32 -9 -60q0 -87 94 -130v-23h-294z" />
<glyph unicode="B" d="M10 4v23q55 6 83.5 31.5t28.5 72.5l2 974q0 75 -101 112l3 23h425l-135 -18v-580q111 0 176.5 4.5t97.5 16.5q64 25 132 153q10 59 10 113q0 243 -224 293q329 0 405 -208l13 -68q0 -92 -58 -163t-171 -120l-85 -27l71 -24q337 -109 337 -301q0 -15 -2.5 -30.5 t-4.5 -25.5q-43 -122 -168 -186.5t-328 -64.5q161 0 257 144q37 110 37 189q0 73 -32 119q-63 93 -154 123q-43 24 -116.5 33t-192.5 9v-482q0 -101 96 -112v-23h-402z" />
<glyph unicode="C" horiz-adv-x="1500" d="M17 559q0 299 196 485q270 200 571 200q64 0 129 -9q172 -20 270 -79v-250q-86 207 -117 248t-217 59q-114 0 -184.5 -8.5t-130.5 -38.5q-125 -61 -204 -210q-37 -75 -56 -197t-19 -297q0 -132 77 -242q74 -106 193 -174q59 -34 121 -51t131 -17q136 0 232 57 q49 29 102 86.5t111 145.5l-62 -271q-33 -8 -129 -22q-59 -8 -118 -17q-381 0 -599 121q-224 124 -292 384q-5 55 -5 97z" />
<glyph unicode="D" horiz-adv-x="1521" d="M-34 1230v27q330 0 564 -29t384 -94q170 -100 256 -211q92 -119 92 -253q0 -229 -111 -386q-118 -166 -372 -272h-59q304 143 304 541q0 132 -33 291q-98 251 -301.5 309.5t-393.5 58.5l-2 -1060q35 -101 129 -122l63 -7l3 -30h-484l-1 28q49 18 75 51.5t26 83.5v936 q-62 138 -139 138zM676 0l60 18z" />
<glyph unicode="E" d="M-4 1196v25l313 -3v-560q87 -9 160 -9q252 0 324 105l14 -17q-11 -24 -17 -49t-6 -51q0 -58 31 -117l-22 -18q0 65 -116.5 91t-367.5 26v-502q6 -61 47 -73q25 -5 55.5 -10.5t68.5 -10.5v-23h-476v30q91 12 110 92v480l3 481q0 92 -121 113zM585 1221l286 17h38l-20 -214 q-9 41 -62 101q-26 27 -85.5 51t-156.5 45zM658 0q90 30 143 56q59 29 88 58t52.5 72t46.5 105l-40 -309z" />
<glyph unicode="F" d="M10 1196v25l312 -3v-560q89 -9 161 -9q251 0 323 105l16 -17q-24 -51 -24 -102q0 -56 30 -115l-22 -18q0 65 -116.5 91t-367.5 26v-502q6 -61 49 -73q23 -5 53.5 -10.5t69.5 -10.5v-23h-477v30q90 12 112 92v480l1 481q0 92 -120 113zM585 1221l286 17h38l-20 -214 q-9 41 -62 101q-26 27 -85.5 51t-156.5 45z" />
<glyph unicode="G" horiz-adv-x="1500" d="M18 560q0 298 195 484q270 200 571 200q64 0 129 -9q172 -20 270 -79v-250q-86 207 -117 248t-217 59q-114 0 -184.5 -8.5t-130.5 -38.5q-125 -61 -204 -210q-37 -75 -56 -197t-19 -297q0 -132 77 -242q74 -106 191 -173.5t316 -86.5l-7 -21q-347 0 -557 142 q-200 135 -252 382q-5 55 -5 97zM879 541v34h365v-41q-28 3 -28 -32q0 -10 1 -16v-486q-140 -21 -304 -38q56 35 82 166t26 358q0 55 -142 55z" />
<glyph unicode="H" horiz-adv-x="1751" d="M7 0v23q107 34 107 142v927q2 10 2 15q0 54 -99 89l1 22h427l-2 -25q-113 -38 -113 -102v-8v-425h733l-2 430q0 43 -32.5 69t-102.5 36l2 25h425l-1 -31q-110 0 -110 -77q0 -6 2 -22v-942q12 -106 108 -123l1 -23h-425l-2 23q95 16 135 112l2 484h-733l-2 -454 q15 -110 115 -144l2 -21h-438z" />
<glyph unicode="I" horiz-adv-x="676" d="M7 0v23q107 34 107 142v927q2 10 2 15q0 54 -99 89l1 22h427l-2 -25q-113 -38 -113 -102v-8l-2 -918q15 -110 115 -144l2 -21h-438z" />
<glyph unicode="J" horiz-adv-x="676" d="M-4 -423q62 104 90 249t28 339v927q2 10 2 15q0 54 -99 89l1 22h427l-2 -25q-113 -38 -113 -102v-8l-2 -918q0 -113 -20.5 -197t-140.5 -244t-171 -167v20z" />
<glyph unicode="K" horiz-adv-x="1515" d="M0 0v21q91 19 91 127v961q-12 62 -87 84v28l441 -3l-6 -25q-45 -12 -68 -32t-23 -52v-961q36 -125 95 -125l2 -23h-445zM445 580l117 156q26 -84 294.5 -370.5t400.5 -365.5q-287 0 -407 117zM754 928q32 64 47 123.5t15 118.5q0 24 -3 48h328q-153 -38 -387 -290z" />
<glyph unicode="L" horiz-adv-x="1223" d="M4 27q78 10 97 186v870q-36 135 -96 135h388q-77 -38 -97 -212l-2 -985h365q25 0 58.5 10t84.5 34t101.5 70t106.5 117l-77 -270l-50 1v17h-878z" />
<glyph unicode="M" horiz-adv-x="1893" d="M0 0v18q85 21 145 217q68 222 68 578l-21 -735l117 -78h-309zM135 1199l310 19l20 -194l289 -694l59 -39l37 18l-114 -327l-406 966l-99 19l-18 -135v290zM1160 0q119 34 119 171v15v13q-2 10 -2 14l-59 811l-39 -18l-19 18l39 194h329l-97 -116q0 -257 1.5 -402.5 t9 -284.5t28.5 -298q36 -98 97 -117h-407z" />
<glyph unicode="N" horiz-adv-x="1542" d="M0 0v40q101 42 101 203q30 315 30 529q0 446 -131 446l270 -19l793 -890h78l-5 806q-25 53 -135 68l5 35h251v-35q-78 -24 -78 -159l-19 -1042l-1018 1026l14 -758q26 -168 114 -210v-40h-270z" />
<glyph unicode="O" horiz-adv-x="1697" d="M18 562q0 310 156 462q194 173 310 194h57q-271 -157 -271 -425q-14 -92 -14 -173q0 -261 131 -485q48 -58 101 -96t113 -57l231 -21q-186 0 -258 9t-129 30q-268 154 -310 231q-94 154 -117 331zM568 608l121 -122l129 129l-121 122zM757 1244q539 -65 655 -529 q3 -25 4 -60.5t1 -40.5q0 -472 -508 -632h-38q167 82 240 268q68 172 68 465q-77 348 -173 407l-135 96z" />
<glyph unicode="P" horiz-adv-x="1177" d="M13 27q59 21 90.5 71.5t31.5 131.5v892q-35 34 -122 88v28h452l-156 -20l-11 -994q0 -163 148 -203v-21h-428zM502 1218q32 4 70 4q113 0 205 -49q122 -63 176 -260q1 -7 1.5 -14t0.5 -14q0 -65 -49 -145q-58 -94 -268 -178q115 76 115 264q0 70 -17 161 q-39 152 -234 231z" />
<glyph unicode="Q" horiz-adv-x="1703" d="M18 484q0 286 126 465q132 186 414 274q-307 -151 -307 -563q0 -182 58 -408l97 -156q137 -121 329 -121q51 0 97 7q-1 -4 -1 -8v-6q0 -69 119 -136l132 -74q219 -108 335 -108h13h10q7 2 10 2l-193 -58q-35 -15 -77 -15q-127 0 -330 130q-102 93 -160.5 142t-78 51.5 t-217.5 127.5q-99 61 -165.5 115.5t-100.5 101t-61 105t-49 132.5zM568 608l121 -122l129 129l-121 122zM771 1230q274 0 434.5 -151t206.5 -441q-39 -345 -174 -464q-154 -134 -329 -192h-59q322 112 322 604q0 96 -12 207q-82 271 -389 437z" />
<glyph unicode="R" horiz-adv-x="1460" d="M27 1204v40q655 0 766 -71q153 -95 174 -214q0 -105 -26 -159.5t-265 -206.5l272 -368l154 -153l175 -98q-138 0 -227 23q-104 27 -179 93q-329 462 -377 473l-49 10q211 37 291 233q10 83 10 150q0 101 -30 143q-45 62 -109 87.5t-259 25.5l-3 -1049q0 -106 135 -123 l4 -47h-445l-5 41q60 7 91 40t31 95v906q0 99 -129 129z" />
<glyph unicode="S" horiz-adv-x="1035" d="M18 57l21 60v135q135 -251 328 -270h195l114 114q27 53 27 123q0 34 -6 72q-21 115 -484 385q-114 123 -114 232q0 168 266 309q-45 -39 -68 -83.5t-23 -98.5q0 -55 19.5 -98t61.5 -79q47 -36 90 -65q50 -34 107 -66.5t105.5 -67t97.5 -78.5q95 -78 95 -136 q19 -64 19 -124q0 -234 -307 -360q-170 0 -252 9q-111 12 -175 48zM580 1218q29 2 42 3t23 1q122 0 187 -62l-19 -232q-77 290 -233 290z" />
<glyph unicode="T" horiz-adv-x="1453" d="M18 1006l21 251l96 -39h1006l77 39l20 -194v-57q-72 186 -329 186q-92 0 -199 -22l5 -939q18 -211 103 -211q9 0 14 1v-21h-406v34q11 -4 24 -4q43 0 70 55t27 158v934q-98 19 -182 19q-258 0 -347 -190z" />
<glyph unicode="U" horiz-adv-x="1555" d="M13 1230h426v-26q-61 -11 -94.5 -41.5t-33.5 -80.5v-656q-3 -14 -4 -35.5t-1 -23.5q0 -76 42 -136q55 -133 203 -193q71 -28 171 -28q104 0 226 29l-174 -78q-22 -1 -41 -2.5t-45 -1.5q-172 0 -340 61q-213 157 -213 330v735q-16 93 -117 116zM1021 1183v40l275 -5 l-5 -35q-94 -20 -101 -68l-11 -728l-57 735q-12 46 -101 61z" />
<glyph unicode="V" horiz-adv-x="1433" d="M13 1204v19l374 -5l-2 -14q-43 -36 -43 -118q0 -61 25 -158l309 -715l60 18l-98 -270l-43 12l-460 1090q-40 77 -122 141zM909 601l115 443q4 31 4 60q0 86 -54 86v33h270v-19q-30 -11 -58 -30t-50 -46z" />
<glyph unicode="W" horiz-adv-x="2041" d="M13 1223l354 -5l-2 -28q-41 -50 -41 -114q0 -25 6 -52l211 -715l97 -18l-115 -309l-406 1101q-34 64 -99 116zM771 1196l3 22l341 5v-40q-55 0 -55 -127q0 -30 3 -69l214 -678l96 -18l-116 -309q-74 52 -309 889l-124 -13l55 156q0 144 -108 182zM1528 715q60 207 60 326 q0 114 -54 149v33l264 -5v-28q-47 -28 -85.5 -72t-73.5 -110q-31 -66 -59 -138.5t-52 -154.5z" />
<glyph unicode="X" horiz-adv-x="1373" d="M13 34q74 20 239 197q-2 -18 -3 -33.5t-1 -33.5q0 -89 35 -109l8 -55h-273zM55 1190l2 36h369v-36q-37 0 -37 -39q0 -41 37 -116l149 -285l44 -8l2 -45l325 -549q43 -73 136 -108l1 -33h-386v40q42 30 42 84q0 14 -3 32l-174 345l-97 21q10 28 10 56q0 79 -71 191 l-201 333q-67 54 -148 81zM790 1190l3 28h231l-3 -41q-42 -6 -208 -190q15 66 15 111q0 70 -38 92z" />
<glyph unicode="Y" horiz-adv-x="1312" d="M21 1183l5 35h347l-1 -35q-18 -21 -18 -68q0 -68 40 -187l153 -327h78v-466q39 -135 97 -135h-390v27q92 42 107 182v305l-317 601q-39 43 -101 68zM793 909q49 117 49 193q0 70 -44 102v19h243v-27q-112 -14 -248 -287z" />
<glyph unicode="Z" horiz-adv-x="1440" d="M0 0l832 1122q-19 10 -19 33q0 22 19 63q-363 0 -540 -62q-194 -68 -232 -228l18 290h1005l-792 -1083v-96q138 -13 238 -13q549 0 632 322l-78 -348h-1083z" />
<glyph unicode="a" horiz-adv-x="1123" d="M3 0v18q100 42 340 694l-78 -280h328l-131 356q-18 19 -39 19t-46 -19l39 114l99 81l291 -780q72 -172 135 -185v-18h-287l-1 18q40 0 40 82q0 38 -9 94l-74 192l-363 1l-83 -223q-7 -24 -7 -47q0 -66 72 -99v-18h-226z" />
<glyph unicode="b" horiz-adv-x="978" d="M8 3v18q86 10 86 80l1 749q0 58 -77 86l2 18h327l-104 -14v-446q88 0 137 3.5t74 12.5q50 19 101 118q8 50 8 87q0 187 -172 225q253 0 311 -160l10 -52q0 -72 -44 -126t-132 -92l-65 -21l54 -18q259 -84 259 -231q0 -17 -1 -24t-4 -20q-33 -94 -129 -143.5t-252 -49.5 q123 0 197 111q29 87 29 146q0 53 -25 91q-49 72 -118 94q-33 18 -92.5 25.5t-145.5 7.5v-371q0 -78 74 -86v-18h-309z" />
<glyph unicode="c" horiz-adv-x="1154" d="M13 430q0 229 151 373q206 154 438 154q52 0 100 -7q132 -15 208 -61v-192q-67 160 -90.5 191.5t-166.5 44.5q-25 1 -36 1t-22 1q-108 0 -184 -38q-97 -48 -156 -162t-59 -380q0 -101 58.5 -184.5t149.5 -135.5q46 -26 93 -39t101 -13q103 0 178 44q39 23 78.5 66 t85.5 112l-48 -208q-44 -11 -190 -30q-293 0 -460 93q-172 96 -225 295q-2 19 -3 36t-1 39z" />
<glyph unicode="d" horiz-adv-x="1170" d="M-26 946v21q258 0 434.5 -22t294.5 -73q250 -146 268 -357q0 -177 -85 -297q-90 -127 -287 -209h-45q234 111 234 416q0 99 -26 224q-76 193 -231 238t-303 45l-2 -815q27 -77 99 -94l49 -5l2 -23h-372l-1 21q78 29 78 104v720q-48 106 -107 106zM520 0l46 14z" />
<glyph unicode="e" horiz-adv-x="978" d="M-3 920v19l241 -2v-431q35 -3 65 -5t58 -2q193 0 249 81l11 -13q-18 -39 -18 -76q0 -44 24 -91l-17 -14q0 90 -372 90v-386q5 -47 36 -56q20 -5 43.5 -9t51.5 -7v-18h-366v23q70 9 85 71v369l2 370q0 71 -93 87zM450 939l220 13h29l-15 -164q-7 32 -47.5 76t-186.5 75z M506 0q68 22 111.5 43.5t66.5 44.5q43 43 75 136l-30 -238z" />
<glyph unicode="f" horiz-adv-x="978" d="M8 920v19l240 -2v-431q35 -3 65 -5t58 -2q193 0 249 81l12 -13q-19 -41 -19 -78q0 -44 24 -89l-17 -14q0 50 -88.5 70t-283.5 20v-386q5 -47 37 -56q20 -5 43.5 -9t51.5 -7v-18h-367v23q70 9 86 71v369l1 370q0 71 -92 87zM450 939l220 13h29l-15 -164q-7 32 -47.5 76 t-186.5 75z" />
<glyph unicode="g" horiz-adv-x="1154" d="M14 431q0 228 150 372q206 154 438 154q52 0 100 -7q132 -15 208 -61v-192q-67 160 -90.5 191.5t-166.5 44.5q-25 1 -36 1t-22 1q-108 0 -184 -38q-97 -48 -156 -162t-59 -380q0 -101 58.5 -184.5t149 -135t241.5 -66.5l-5 -16q-267 0 -428 109q-155 105 -194 294 q-2 19 -3 36t-1 39zM676 416v26h281v-31q-22 0 -22 -25q0 -8 1 -12v-374q-49 -8 -103.5 -14.5t-130.5 -14.5q43 27 63 128t20 275q0 42 -109 42z" />
<glyph unicode="h" horiz-adv-x="1347" d="M5 0v18q83 25 83 109v713q1 4 1 11q0 42 -76 69l1 17h328l-1 -19q-87 -29 -87 -79v-6v-327h564l-2 331q0 34 -24.5 53.5t-79.5 27.5l2 19h327l-1 -24q-85 0 -85 -59q0 -5 2 -17v-725q9 -82 83 -94l1 -18h-327l-2 18q74 12 104 86l2 372h-564l-2 -349q12 -84 89 -111 l1 -16h-337z" />
<glyph unicode="i" horiz-adv-x="520" d="M5 0v18q83 25 83 109v713q1 4 1 11q0 42 -76 69l1 17h328l-1 -19q-87 -29 -87 -79v-6l-2 -706q12 -84 89 -111l1 -16h-337z" />
<glyph unicode="j" horiz-adv-x="520" d="M-3 -325q48 80 69.5 191.5t21.5 260.5v713q1 4 1 11q0 42 -76 69l1 17h328l-1 -19q-87 -29 -87 -79v-6l-2 -706q0 -88 -15 -153q-9 -33 -34 -77t-74 -109q-92 -123 -132 -129v16z" />
<glyph unicode="k" horiz-adv-x="1165" d="M0 0v16q70 15 70 98v739q-9 47 -67 65v21l339 -2l-4 -19q-70 -19 -70 -65v-739q28 -96 73 -96l1 -18h-342zM342 446l90 120q20 -65 227 -285.5t308 -280.5q-221 0 -313 90zM580 714q47 94 47 184v24q-2 11 -2 15h253q-117 -28 -298 -223z" />
<glyph unicode="l" horiz-adv-x="941" d="M3 21q60 8 75 143v669q-29 104 -74 104h298q-59 -29 -74 -163l-2 -758h281q19 0 44.5 8t67.5 27q73 34 158 143l-59 -208l-39 1v13h-675z" />
<glyph unicode="m" horiz-adv-x="1456" d="M0 0v14q66 17 112 167q52 170 52 444l-16 -565l90 -60h-238zM104 922l238 15l16 -149l222 -534l45 -30l29 14l-88 -252l-312 743l-76 15l-14 -104v223zM892 0q92 26 92 132v15q-2 12 -2 17l-45 624l-30 -14l-15 14l30 149h253l-74 -89q0 -131 1 -263t7.5 -255t21.5 -240 q27 -75 74 -90h-313z" />
<glyph unicode="n" horiz-adv-x="1186" d="M0 0v31q78 32 78 156q23 247 23 406q0 344 -101 344l208 -15l610 -684h60l-4 620q-19 40 -104 52l4 27h193v-27q-60 -18 -60 -122l-15 -802l-783 789l11 -583q20 -129 88 -161v-31h-208z" />
<glyph unicode="o" horiz-adv-x="1305" d="M14 432q0 239 120 356q149 133 238 149h44q-208 -121 -208 -327q-11 -72 -11 -135q0 -199 101 -371q73 -89 164 -118l178 -16q-122 0 -163 3q-78 6 -135 27q-207 118 -238 178q-73 118 -90 254zM437 468l93 -94l99 99l-93 94zM582 957q414 -50 504 -407q4 -36 4 -77 q0 -363 -391 -487h-29q129 64 185 206q52 132 52 358q-58 267 -133 313l-104 74z" />
<glyph unicode="p" horiz-adv-x="905" d="M10 21q45 16 69.5 55t24.5 101v686q-28 27 -94 68v21h348l-120 -15l-9 -765q0 -125 114 -156v-16h-329zM386 937q27 3 52 3q90 0 160 -38q93 -48 135 -200q2 -14 2 -22q0 -49 -38 -111q-46 -73 -206 -137q88 58 88 203q0 59 -13 124q-30 116 -180 178z" />
<glyph unicode="q" horiz-adv-x="1310" d="M14 372q0 222 96 358q101 143 319 211q-236 -117 -236 -433q0 -138 45 -314l74 -120q106 -94 253 -94q36 0 75 6q-1 -3 -1 -6.5v-4.5q0 -53 92 -104l101 -57q170 -84 259 -84h12q8 2 12 2l-148 -44q-11 -5 -27.5 -8t-32.5 -3q-97 0 -253 99q-160 145 -178 149 q-16 0 -170.5 96.5t-207 168.5t-84.5 182zM437 468l93 -94l99 99l-93 94zM593 946q210 0 334 -116t159 -339q-30 -266 -134 -357q-116 -103 -253 -148h-45q248 87 248 463q0 59 -3 97q-5 43 -7 64q-63 209 -299 336z" />
<glyph unicode="r" horiz-adv-x="1123" d="M21 926v31q504 0 589 -55q117 -73 134 -164q0 -82 -20 -123t-204 -159l209 -283l119 -118l134 -75q-106 0 -175 18q-80 21 -137 71q-253 356 -290 364l-38 8q162 28 224 179q4 35 6 61.5t2 54.5q0 77 -23 109q-33 48 -83 67.5t-200 19.5l-3 -807q0 -82 104 -94l3 -36 h-342l-4 31q46 5 70 30.5t24 73.5v697q0 76 -99 99z" />
<glyph unicode="s" horiz-adv-x="796" d="M14 44l16 46v104q103 -193 252 -208h150l88 88q21 41 21 94q0 23 -5 56q-17 89 -372 296q-88 94 -88 179q0 128 205 237q-33 -29 -51.5 -64.5t-18.5 -75.5q0 -83 62 -136q38 -29 69 -50q39 -26 82 -51q86 -48 158 -110.5t72 -106.5q15 -51 15 -95q0 -179 -237 -277 q-129 0 -203.5 8t-124.5 36zM446 937q26 3 49 3q94 0 145 -48l-15 -178q-59 223 -179 223z" />
<glyph unicode="t" horiz-adv-x="1118" d="M14 774l16 193l74 -30h774l59 30l15 -149v-44q-56 143 -253 143q-65 0 -153 -17l4 -722q13 -163 79 -163q7 0 11 1v-16h-312v26q9 -3 19 -3q33 0 53.5 41.5t20.5 122.5v718q-78 15 -142 15q-196 0 -265 -146z" />
<glyph unicode="u" horiz-adv-x="1196" d="M10 946h328v-20q-48 -9 -73.5 -32t-25.5 -62v-504q-2 -10 -3 -22t-1 -23q0 -58 33 -105q42 -102 156 -149q54 -22 132 -22q36 0 80 6t93 17l-134 -60q-99 0 -163 7q-88 10 -164 37q-164 120 -164 254v565q-13 72 -90 89zM785 910v31l212 -4l-4 -27q-72 -15 -78 -52 l-8 -560l-44 565q-9 35 -78 47z" />
<glyph unicode="v" horiz-adv-x="1102" d="M10 926v15l288 -4l-2 -11q-33 -27 -33 -91q0 -22 5 -53t14 -68l238 -550l46 14l-75 -208l-33 9l-354 839q-31 58 -94 108zM699 462l89 341q3 26 3 45q0 67 -42 67v26h208v-15q-24 -9 -44.5 -22.5t-38.5 -35.5z" />
<glyph unicode="w" horiz-adv-x="1570" d="M10 941l272 -4l-1 -22q-32 -38 -32 -87q0 -17 5 -40l162 -550l75 -14l-89 -238l-312 847q-26 50 -76 89zM593 920l2 17l263 4v-31q-43 0 -43 -95q0 -24 3 -56l164 -521l74 -14l-89 -238q-58 42 -238 684l-95 -10l42 120q0 110 -83 140zM1175 550q46 159 46 252 q0 87 -41 113v26l203 -4v-22q-70 -40 -120.5 -141.5t-87.5 -223.5z" />
<glyph unicode="x" horiz-adv-x="1056" d="M10 26q56 15 184 152q-3 -29 -3 -52q0 -69 27 -84l6 -42h-210zM42 915l2 28h284v-28q-29 0 -29 -30q0 -29 29 -89l114 -219l34 -6l2 -35l250 -422q32 -57 104 -83l1 -26h-297v31q32 22 32 63q0 17 -2 26l-134 266l-74 16q7 18 7 42q0 62 -54 148l-155 256 q-27 22 -53 36.5t-61 25.5zM608 915l2 22h178l-3 -32q-32 -5 -160 -146q12 51 12 86q0 53 -29 70z" />
<glyph unicode="y" horiz-adv-x="1009" d="M16 910l4 27h267l-1 -27q-14 -17 -14 -52q0 -54 31 -144l118 -252h60v-358q30 -104 74 -104h-300v21q71 31 83 140v234l-244 463q-31 34 -78 52zM610 699q38 93 38 149q0 53 -34 78v15h187v-21q-87 -11 -191 -221z" />
<glyph unicode="z" horiz-adv-x="1108" d="M0 0l640 863q-14 6 -14 14q0 6 14 37q-293 0 -416 -36q-150 -44 -178 -164l14 223h773l-609 -833v-74q41 -4 93 -7t90 -3q421 0 486 248l-60 -268h-833z" />
<glyph unicode="&#x2000;" horiz-adv-x="682" />
<glyph unicode="&#x2001;" horiz-adv-x="1365" />
<glyph unicode="&#x2002;" horiz-adv-x="682" />
<glyph unicode="&#x2003;" horiz-adv-x="1365" />
<glyph unicode="&#x2004;" horiz-adv-x="455" />
<glyph unicode="&#x2005;" horiz-adv-x="341" />
<glyph unicode="&#x2006;" horiz-adv-x="227" />
<glyph unicode="&#x2007;" horiz-adv-x="227" />
<glyph unicode="&#x2008;" horiz-adv-x="170" />
<glyph unicode="&#x2009;" horiz-adv-x="273" />
<glyph unicode="&#x200a;" horiz-adv-x="75" />
<glyph unicode="&#x202f;" horiz-adv-x="273" />
<glyph unicode="&#x205f;" horiz-adv-x="341" />
<glyph unicode="&#x25fc;" horiz-adv-x="945" d="M0 0v945h945v-945h-945z" />
</font>
</defs>
</svg>
